<svg data-v-fde0c5aa="" xmlns="http://www.w3.org/2000/svg" viewBox="0 0 300 300" class="iconLeft"><!----><defs data-v-fde0c5aa=""><!----></defs><rect data-v-fde0c5aa="" fill="#111F51" x="0" y="0" width="300px" height="300px" class="logo-background-square"></rect><defs data-v-fde0c5aa=""><!----></defs><g data-v-fde0c5aa="" id="5fe78680-1b6b-4879-849c-5219c5b91753" fill="#19CEDA" transform="matrix(1.579815984829569,0,0,1.579815984829569,75.4143070596158,137.203490296886)"><path d="M7.43 4.02L7.43 4.02L8.57 4.02L8.57 4.02Q8.76 4.02 8.76 4.21L8.76 4.21L8.76 12.82L8.76 12.82Q8.76 13.02 8.57 13.02L8.57 13.02L7.95 13.02L7.95 13.02Q7.76 13.02 7.76 12.82L7.76 12.82L7.76 5.39L7.70 5.39L5.53 10.88L5.53 10.88Q5.45 11.06 5.28 11.06L5.28 11.06L4.61 11.06L4.61 11.06Q4.42 11.06 4.37 10.88L4.37 10.88L2.16 5.38L2.10 5.38L2.10 12.82L2.10 12.82Q2.10 13.02 1.92 13.02L1.92 13.02L1.30 13.02L1.30 13.02Q1.11 13.02 1.11 12.82L1.11 12.82L1.11 4.21L1.11 4.21Q1.11 4.02 1.30 4.02L1.30 4.02L2.44 4.02L2.44 4.02Q2.56 4.02 2.60 4.13L2.60 4.13L4.90 9.93L4.97 9.93L7.27 4.13L7.27 4.13Q7.29 4.02 7.43 4.02ZM13.57 13.02L13.57 13.02L12.78 13.02L12.78 13.02Q11.83 13.02 11.30 12.47L11.30 12.47L11.30 12.47Q10.77 11.93 10.77 10.95L10.77 10.95L10.77 6.08L10.77 6.08Q10.77 5.88 10.96 5.88L10.96 5.88L11.59 5.88L11.59 5.88Q11.79 5.88 11.79 6.08L11.79 6.08L11.79 10.91L11.79 10.91Q11.79 12.12 12.95 12.12L12.95 12.12L13.75 12.12L13.75 12.12Q14.38 12.12 14.71 11.79L14.71 11.79L14.71 11.79Q15.05 11.45 15.05 10.84L15.05 10.84L15.05 6.08L15.05 6.08Q15.05 5.88 15.25 5.88L15.25 5.88L15.88 5.88L15.88 5.88Q16.07 5.88 16.07 6.08L16.07 6.08L16.07 12.82L16.07 12.82Q16.07 13.02 15.88 13.02L15.88 13.02L15.25 13.02L15.25 13.02Q15.05 13.02 15.05 12.82L15.05 12.82L15.05 12.28L14.99 12.28L14.99 12.28Q14.64 13.02 13.57 13.02ZM18.83 13.02L18.83 13.02L18.20 13.02L18.20 13.02Q18.00 13.02 18.00 12.82L18.00 12.82L18.00 3.37L18.00 3.37Q18.00 3.18 18.20 3.18L18.20 3.18L18.83 3.18L18.83 3.18Q19.03 3.18 19.03 3.37L19.03 3.37L19.03 6.62L19.08 6.62L19.08 6.62Q19.43 5.88 20.51 5.88L20.51 5.88L21.29 5.88L21.29 5.88Q22.25 5.88 22.78 6.43L22.78 6.43L22.78 6.43Q23.31 6.97 23.31 7.95L23.31 7.95L23.31 12.82L23.31 12.82Q23.31 13.02 23.11 13.02L23.11 13.02L22.48 13.02L22.48 13.02Q22.29 13.02 22.29 12.82L22.29 12.82L22.29 7.99L22.29 7.99Q22.29 6.78 21.11 6.78L21.11 6.78L20.33 6.78L20.33 6.78Q19.70 6.78 19.36 7.11L19.36 7.11L19.36 7.11Q19.03 7.45 19.03 8.06L19.03 8.06L19.03 12.82L19.03 12.82Q19.03 13.02 18.83 13.02ZM27.83 13.02L27.83 13.02L27.10 13.02L27.10 13.02Q26.14 13.02 25.59 12.47L25.59 12.47L25.59 12.47Q25.03 11.93 25.03 10.95L25.03 10.95L25.03 7.95L25.03 7.95Q25.03 6.97 25.59 6.43L25.59 6.43L25.59 6.43Q26.14 5.88 27.10 5.88L27.10 5.88L30.14 5.88L30.14 5.88Q30.34 5.88 30.34 6.08L30.34 6.08L30.34 12.82L30.34 12.82Q30.34 13.02 30.14 13.02L30.14 13.02L29.51 13.02L29.51 13.02Q29.32 13.02 29.32 12.82L29.32 12.82L29.32 12.28L29.26 12.28L29.26 12.28Q28.91 13.02 27.83 13.02ZM29.32 10.84L29.32 10.84L29.32 6.90L29.32 6.90Q29.32 6.78 29.18 6.78L29.18 6.78L27.22 6.78L27.22 6.78Q26.05 6.78 26.05 7.99L26.05 7.99L26.05 10.91L26.05 10.91Q26.05 12.12 27.22 12.12L27.22 12.12L28.01 12.12L28.01 12.12Q28.64 12.12 28.98 11.79L28.98 11.79L28.98 11.79Q29.32 11.45 29.32 10.84ZM33.10 13.02L33.10 13.02L32.47 13.02L32.47 13.02Q32.27 13.02 32.27 12.82L32.27 12.82L32.27 6.08L32.27 6.08Q32.27 5.88 32.47 5.88L32.47 5.88L33.10 5.88L33.10 5.88Q33.29 5.88 33.29 6.08L33.29 6.08L33.29 6.62L33.35 6.62L33.35 6.62Q33.74 5.88 34.83 5.88L34.83 5.88L35.35 5.88L35.35 5.88Q36.58 5.88 37.06 6.83L37.06 6.83L37.06 6.83Q37.28 6.37 37.77 6.12L37.77 6.12L37.77 6.12Q38.25 5.88 38.78 5.88L38.78 5.88L39.27 5.88L39.27 5.88Q40.22 5.88 40.75 6.43L40.75 6.43L40.75 6.43Q41.29 6.97 41.29 7.95L41.29 7.95L41.29 12.82L41.29 12.82Q41.29 13.02 41.09 13.02L41.09 13.02L40.46 13.02L40.46 13.02Q40.26 13.02 40.26 12.82L40.26 12.82L40.26 7.99L40.26 7.99Q40.26 6.78 39.09 6.78L39.09 6.78L38.63 6.78L38.63 6.78Q38.00 6.78 37.65 7.13L37.65 7.13L37.65 7.13Q37.31 7.49 37.31 8.11L37.31 8.11L37.31 12.82L37.31 12.82Q37.31 13.02 37.11 13.02L37.11 13.02L36.48 13.02L36.48 13.02Q36.29 13.02 36.29 12.82L36.29 12.82L36.29 7.99L36.29 7.99Q36.29 6.78 35.11 6.78L35.11 6.78L34.59 6.78L34.59 6.78Q33.96 6.78 33.63 7.11L33.63 7.11L33.63 7.11Q33.29 7.45 33.29 8.06L33.29 8.06L33.29 12.82L33.29 12.82Q33.29 13.02 33.10 13.02ZM43.97 13.02L43.97 13.02L43.34 13.02L43.34 13.02Q43.15 13.02 43.15 12.82L43.15 12.82L43.15 6.08L43.15 6.08Q43.15 5.88 43.34 5.88L43.34 5.88L43.97 5.88L43.97 5.88Q44.17 5.88 44.17 6.08L44.17 6.08L44.17 6.62L44.23 6.62L44.23 6.62Q44.62 5.88 45.71 5.88L45.71 5.88L46.23 5.88L46.23 5.88Q47.46 5.88 47.94 6.83L47.94 6.83L47.94 6.83Q48.16 6.37 48.64 6.12L48.64 6.12L48.64 6.12Q49.13 5.88 49.66 5.88L49.66 5.88L50.15 5.88L50.15 5.88Q51.10 5.88 51.63 6.43L51.63 6.43L51.63 6.43Q52.16 6.97 52.16 7.95L52.16 7.95L52.16 12.82L52.16 12.82Q52.16 13.02 51.97 13.02L51.97 13.02L51.34 13.02L51.34 13.02Q51.14 13.02 51.14 12.82L51.14 12.82L51.14 7.99L51.14 7.99Q51.14 6.78 49.97 6.78L49.97 6.78L49.50 6.78L49.50 6.78Q48.87 6.78 48.53 7.13L48.53 7.13L48.53 7.13Q48.19 7.49 48.19 8.11L48.19 8.11L48.19 12.82L48.19 12.82Q48.19 13.02 47.99 13.02L47.99 13.02L47.36 13.02L47.36 13.02Q47.17 13.02 47.17 12.82L47.17 12.82L47.17 7.99L47.17 7.99Q47.17 6.78 45.99 6.78L45.99 6.78L45.47 6.78L45.47 6.78Q44.84 6.78 44.51 7.11L44.51 7.11L44.51 7.11Q44.17 7.45 44.17 8.06L44.17 8.06L44.17 12.82L44.17 12.82Q44.17 13.02 43.97 13.02ZM56.69 13.02L56.69 13.02L55.96 13.02L55.96 13.02Q54.99 13.02 54.44 12.47L54.44 12.47L54.44 12.47Q53.89 11.93 53.89 10.95L53.89 10.95L53.89 7.95L53.89 7.95Q53.89 6.97 54.44 6.43L54.44 6.43L54.44 6.43Q54.99 5.88 55.96 5.88L55.96 5.88L59.00 5.88L59.00 5.88Q59.19 5.88 59.19 6.08L59.19 6.08L59.19 12.82L59.19 12.82Q59.19 13.02 59.00 13.02L59.00 13.02L58.37 13.02L58.37 13.02Q58.17 13.02 58.17 12.82L58.17 12.82L58.17 12.28L58.11 12.28L58.11 12.28Q57.76 13.02 56.69 13.02ZM58.17 10.84L58.17 10.84L58.17 6.90L58.17 6.90Q58.17 6.78 58.03 6.78L58.03 6.78L56.07 6.78L56.07 6.78Q54.91 6.78 54.91 7.99L54.91 7.99L54.91 10.91L54.91 10.91Q54.91 12.12 56.07 12.12L56.07 12.12L56.87 12.12L56.87 12.12Q57.50 12.12 57.83 11.79L57.83 11.79L57.83 11.79Q58.17 11.45 58.17 10.84ZM63.83 13.02L63.83 13.02L63 13.02L63 13.02Q62.05 13.02 61.52 12.47L61.52 12.47L61.52 12.47Q60.98 11.93 60.98 10.95L60.98 10.95L60.98 7.95L60.98 7.95Q60.98 6.97 61.52 6.43L61.52 6.43L61.52 6.43Q62.05 5.88 63 5.88L63 5.88L63.83 5.88L63.83 5.88Q64.92 5.88 65.27 6.62L65.27 6.62L65.32 6.62L65.32 3.37L65.32 3.37Q65.32 3.18 65.51 3.18L65.51 3.18L66.15 3.18L66.15 3.18Q66.33 3.18 66.33 3.37L66.33 3.37L66.33 12.82L66.33 12.82Q66.33 13.02 66.15 13.02L66.15 13.02L65.51 13.02L65.51 13.02Q65.32 13.02 65.32 12.82L65.32 12.82L65.32 12.28L65.27 12.28L65.27 12.28Q64.92 13.02 63.83 13.02ZM65.32 10.84L65.32 10.84L65.32 8.06L65.32 8.06Q65.32 7.45 64.99 7.11L64.99 7.11L64.99 7.11Q64.65 6.78 64.02 6.78L64.02 6.78L63.17 6.78L63.17 6.78Q62.01 6.78 62.01 7.99L62.01 7.99L62.01 10.91L62.01 10.91Q62.01 12.12 63.17 12.12L63.17 12.12L64.02 12.12L64.02 12.12Q64.65 12.12 64.99 11.79L64.99 11.79L64.99 11.79Q65.32 11.45 65.32 10.84ZM71.86 10.95L71.86 10.95L71.86 10.50L71.86 10.50Q71.86 10.30 72.06 10.30L72.06 10.30L72.69 10.30L72.69 10.30Q72.88 10.30 72.88 10.50L72.88 10.50L72.88 10.86L72.88 10.86Q72.88 12.12 74.13 12.12L74.13 12.12L75.36 12.12L75.36 12.12Q76.61 12.12 76.61 10.84L76.61 10.84L76.61 10.36L76.61 10.36Q76.61 9.35 74.94 9.04L74.94 9.04L74.94 9.04Q74.24 8.92 73.54 8.75L73.54 8.75L73.54 8.75Q72.84 8.58 72.35 8.10L72.35 8.10L72.35 8.10Q71.86 7.62 71.86 6.78L71.86 6.78L71.86 6.09L71.86 6.09Q71.86 5.12 72.41 4.57L72.41 4.57L72.41 4.57Q72.97 4.02 73.93 4.02L73.93 4.02L75.49 4.02L75.49 4.02Q76.44 4.02 77 4.57L77 4.57L77 4.57Q77.56 5.12 77.56 6.09L77.56 6.09L77.56 6.44L77.56 6.44Q77.56 6.65 77.38 6.65L77.38 6.65L76.73 6.65L76.73 6.65Q76.55 6.65 76.55 6.44L76.55 6.44L76.55 6.19L76.55 6.19Q76.55 4.91 75.31 4.91L75.31 4.91L74.12 4.91L74.12 4.91Q72.87 4.91 72.87 6.24L72.87 6.24L72.87 6.80L72.87 6.80Q72.87 7.52 73.81 7.78L73.81 7.78L73.81 7.78Q74.23 7.90 74.73 7.99L74.73 7.99L74.73 7.99Q75.24 8.08 75.75 8.22L75.75 8.22L75.75 8.22Q76.26 8.37 76.68 8.59L76.68 8.59L76.68 8.59Q77.10 8.81 77.36 9.25L77.36 9.25L77.36 9.25Q77.62 9.69 77.62 10.32L77.62 10.32L77.62 10.95L77.62 10.95Q77.62 11.91 77.06 12.47L77.06 12.47L77.06 12.47Q76.50 13.02 75.54 13.02L75.54 13.02L73.93 13.02L73.93 13.02Q72.98 13.02 72.42 12.47L72.42 12.47L72.42 12.47Q71.86 11.91 71.86 10.95ZM80.42 13.02L80.42 13.02L79.79 13.02L79.79 13.02Q79.59 13.02 79.59 12.82L79.59 12.82L79.59 3.37L79.59 3.37Q79.59 3.18 79.79 3.18L79.79 3.18L80.42 3.18L80.42 3.18Q80.61 3.18 80.61 3.37L80.61 3.37L80.61 6.62L80.67 6.62L80.67 6.62Q81.02 5.88 82.10 5.88L82.10 5.88L82.88 5.88L82.88 5.88Q83.83 5.88 84.36 6.43L84.36 6.43L84.36 6.43Q84.90 6.97 84.90 7.95L84.90 7.95L84.90 12.82L84.90 12.82Q84.90 13.02 84.70 13.02L84.70 13.02L84.07 13.02L84.07 13.02Q83.87 13.02 83.87 12.82L83.87 12.82L83.87 7.99L83.87 7.99Q83.87 6.78 82.70 6.78L82.70 6.78L81.91 6.78L81.91 6.78Q81.28 6.78 80.95 7.11L80.95 7.11L80.95 7.11Q80.61 7.45 80.61 8.06L80.61 8.06L80.61 12.82L80.61 12.82Q80.61 13.02 80.42 13.02ZM89.42 13.02L89.42 13.02L88.69 13.02L88.69 13.02Q87.72 13.02 87.17 12.47L87.17 12.47L87.17 12.47Q86.62 11.93 86.62 10.95L86.62 10.95L86.62 7.95L86.62 7.95Q86.62 6.97 87.17 6.43L87.17 6.43L87.17 6.43Q87.72 5.88 88.69 5.88L88.69 5.88L91.73 5.88L91.73 5.88Q91.92 5.88 91.92 6.08L91.92 6.08L91.92 12.82L91.92 12.82Q91.92 13.02 91.73 13.02L91.73 13.02L91.10 13.02L91.10 13.02Q90.90 13.02 90.90 12.82L90.90 12.82L90.90 12.28L90.85 12.28L90.85 12.28Q90.50 13.02 89.42 13.02ZM90.90 10.84L90.90 10.84L90.90 6.90L90.90 6.90Q90.90 6.78 90.76 6.78L90.76 6.78L88.80 6.78L88.80 6.78Q87.64 6.78 87.64 7.99L87.64 7.99L87.64 10.91L87.64 10.91Q87.64 12.12 88.80 12.12L88.80 12.12L89.60 12.12L89.60 12.12Q90.23 12.12 90.57 11.79L90.57 11.79L90.57 11.79Q90.90 11.45 90.90 10.84ZM94.68 13.02L94.68 13.02L94.05 13.02L94.05 13.02Q93.86 13.02 93.86 12.82L93.86 12.82L93.86 6.08L93.86 6.08Q93.86 5.88 94.05 5.88L94.05 5.88L94.68 5.88L94.68 5.88Q94.88 5.88 94.88 6.08L94.88 6.08L94.88 6.62L94.93 6.62L94.93 6.62Q95.33 5.88 96.42 5.88L96.42 5.88L96.94 5.88L96.94 5.88Q98.17 5.88 98.64 6.83L98.64 6.83L98.64 6.83Q98.87 6.37 99.35 6.12L99.35 6.12L99.35 6.12Q99.83 5.88 100.37 5.88L100.37 5.88L100.86 5.88L100.86 5.88Q101.81 5.88 102.34 6.43L102.34 6.43L102.34 6.43Q102.87 6.97 102.87 7.95L102.87 7.95L102.87 12.82L102.87 12.82Q102.87 13.02 102.68 13.02L102.68 13.02L102.05 13.02L102.05 13.02Q101.85 13.02 101.85 12.82L101.85 12.82L101.85 7.99L101.85 7.99Q101.85 6.78 100.67 6.78L100.67 6.78L100.21 6.78L100.21 6.78Q99.58 6.78 99.24 7.13L99.24 7.13L99.24 7.13Q98.90 7.49 98.90 8.11L98.90 8.11L98.90 12.82L98.90 12.82Q98.90 13.02 98.70 13.02L98.70 13.02L98.07 13.02L98.07 13.02Q97.87 13.02 97.87 12.82L97.87 12.82L97.87 7.99L97.87 7.99Q97.87 6.78 96.70 6.78L96.70 6.78L96.18 6.78L96.18 6.78Q95.55 6.78 95.21 7.11L95.21 7.11L95.21 7.11Q94.88 7.45 94.88 8.06L94.88 8.06L94.88 12.82L94.88 12.82Q94.88 13.02 94.68 13.02ZM104.80 4.70L104.80 4.70L104.80 3.39L104.80 3.39Q104.80 3.19 104.99 3.19L104.99 3.19L105.63 3.19L105.63 3.19Q105.83 3.19 105.83 3.39L105.83 3.39L105.83 4.70L105.83 4.70Q105.83 4.90 105.63 4.90L105.63 4.90L104.99 4.90L104.99 4.90Q104.80 4.90 104.80 4.70ZM104.80 12.82L104.80 12.82L104.80 6.08L104.80 6.08Q104.80 5.88 104.99 5.88L104.99 5.88L105.63 5.88L105.63 5.88Q105.83 5.88 105.83 6.08L105.83 6.08L105.83 12.82L105.83 12.82Q105.83 13.02 105.63 13.02L105.63 13.02L105 13.02L105 13.02Q104.80 13.02 104.80 12.82ZM108.65 13.02L108.65 13.02L108.02 13.02L108.02 13.02Q107.83 13.02 107.83 12.82L107.83 12.82L107.83 6.08L107.83 6.08Q107.83 5.88 108.02 5.88L108.02 5.88L108.65 5.88L108.65 5.88Q108.85 5.88 108.85 6.08L108.85 6.08L108.85 6.62L108.91 6.62L108.91 6.62Q109.30 5.88 110.39 5.88L110.39 5.88L110.91 5.88L110.91 5.88Q112.14 5.88 112.62 6.83L112.62 6.83L112.62 6.83Q112.84 6.37 113.32 6.12L113.32 6.12L113.32 6.12Q113.81 5.88 114.34 5.88L114.34 5.88L114.83 5.88L114.83 5.88Q115.78 5.88 116.31 6.43L116.31 6.43L116.31 6.43Q116.84 6.97 116.84 7.95L116.84 7.95L116.84 12.82L116.84 12.82Q116.84 13.02 116.65 13.02L116.65 13.02L116.02 13.02L116.02 13.02Q115.82 13.02 115.82 12.82L115.82 12.82L115.82 7.99L115.82 7.99Q115.82 6.78 114.65 6.78L114.65 6.78L114.18 6.78L114.18 6.78Q113.55 6.78 113.21 7.13L113.21 7.13L113.21 7.13Q112.87 7.49 112.87 8.11L112.87 8.11L112.87 12.82L112.87 12.82Q112.87 13.02 112.67 13.02L112.67 13.02L112.04 13.02L112.04 13.02Q111.85 13.02 111.85 12.82L111.85 12.82L111.85 7.99L111.85 7.99Q111.85 6.78 110.67 6.78L110.67 6.78L110.15 6.78L110.15 6.78Q109.52 6.78 109.19 7.11L109.19 7.11L109.19 7.11Q108.85 7.45 108.85 8.06L108.85 8.06L108.85 12.82L108.85 12.82Q108.85 13.02 108.65 13.02Z"></path></g><defs data-v-fde0c5aa=""><!----></defs><g data-v-fde0c5aa="" id="55c14a7b-128c-4090-9f4b-e49ae32526ef" stroke="none" fill="#19CEDA" transform="matrix(0.2735836982250717,0,0,0.2735836982250717,38.40201703452704,136.32054100305783)"><path d="M49.595 60.478c-3.969 0-7.561-1.712-10.678-5.089a.85.85 0 1 1 1.249-1.152c2.782 3.014 5.954 4.542 9.429 4.542 3.945 0 7.224-2.566 9.281-4.719a.85.85 0 1 1 1.229 1.174c-3.278 3.43-6.912 5.244-10.51 5.244zM31.855 36.018a.85.85 0 0 1-.075-1.696l1.196-.106c.514-1.166 1.879-4.337 2.534-6.535 1.345-4.516 1.169-6.906 1.167-6.931a.853.853 0 0 1 .51-.851.849.849 0 0 1 .969.21c.049.055 4.966 5.405 11.725 4.467 2.284-.318 5.496-2.277 7.841-3.707 2.687-1.638 3.693-2.252 4.399-1.391 2.681 3.271 3.703 11.243 3.964 13.745l.976.04a.85.85 0 0 1 .814.885c-.019.469-.425.82-.884.814l-1.717-.07a.852.852 0 0 1-.813-.78c-.008-.098-.805-9.511-3.393-13.208-.543.246-1.59.885-2.462 1.416-2.472 1.508-5.858 3.572-8.491 3.939-5.449.758-9.715-1.962-11.811-3.693-.125 1.27-.435 3.144-1.167 5.6-.844 2.836-2.735 7.025-2.815 7.202a.85.85 0 0 1-.699.496l-1.694.151a.862.862 0 0 1-.074.003zM21.131 84.761a.851.851 0 0 1-.828-.663l-2.687-11.873a.85.85 0 0 1 .829-1.037h62.76a.85.85 0 0 1 .829 1.037l-2.685 11.863a.851.851 0 0 1-1.659-.375l2.45-10.826H19.509l2.452 10.836a.85.85 0 0 1-.83 1.038z"></path><path d="M77.247 92.617H22.403a1.5 1.5 0 0 1-1.458-1.148l-1.461-6.052H7.341a1.502 1.502 0 0 1-1.458-1.855C7.1 78.57 10.125 66.769 11.92 65.021c.771-.751 9.218-4.164 25.113-10.147-3.276-4.292-4.821-9.209-5.37-11.303-1.335-1.242-2.326-3.582-2.332-5.646-.004-1.497.49-2.807 1.41-3.787-.865-2.449-3.006-8.719.436-16.355 2.5-5.548 5.426-8.36 8.696-8.36 2.03 0 3.638 1.122 4.621 2.051 1.94-1.468 6.049-4.089 10.65-4.089 3.752 0 9.002 1.809 12.708 10.422 1.393 3.237 1.026 9.424.784 13.518-.052.875-.109 1.84-.115 2.372 1.029 1.099 1.555 2.648 1.491 4.437-.075 2.078-.932 4.223-2.104 5.385-.808 3.128-2.824 7.454-5.815 11.154 7.827 2.683 24.824 8.623 26.666 10.241 1.908 1.676 4.139 12.194 5.329 18.491a1.5 1.5 0 0 1-1.41 2.015H80.166l-1.461 6.053a1.501 1.501 0 0 1-1.458 1.144zm-53.663-3h52.481l1.461-6.053a1.5 1.5 0 0 1 1.458-1.147h11.857c-1.361-6.876-3.201-14.244-4.098-15.286-1.354-1.046-15.314-6.122-27.737-10.345a1.499 1.499 0 0 1-.601-2.457c3.589-3.757 5.987-8.836 6.696-11.964.082-.359.292-.677.592-.891.441-.314 1.26-1.736 1.321-3.452.027-.769-.101-1.817-.867-2.451-.732-.605-.698-1.189-.506-4.428.198-3.345.567-9.57-.545-12.154-2.457-5.711-5.806-8.607-9.953-8.607-5.1 0-9.749 4.217-9.795 4.259a1.498 1.498 0 0 1-2.247-.249c-.01-.014-1.42-1.972-3.229-1.972-1.928 0-4.045 2.342-5.961 6.593-2.99 6.635-1.044 12.14-.311 14.213.309.872.692 1.958-.32 2.662-.643.445-.953 1.107-.95 2.026.004 1.527.914 3.161 1.513 3.571.307.21.524.526.611.888.415 1.726 2.089 7.701 6.188 12.141a1.502 1.502 0 0 1-.576 2.422c-9.238 3.468-24.286 9.25-26.098 10.289-.858 1.18-2.997 8.402-4.711 15.191h11.406a1.5 1.5 0 0 1 1.458 1.148l1.463 6.053z"></path></g><!----></svg>